<?xml version="1.0" encoding="UTF-8" standalone="no"?>
<svg
   xmlns:dc="http://purl.org/dc/elements/1.1/"
   xmlns:cc="http://creativecommons.org/ns#"
   xmlns:rdf="http://www.w3.org/1999/02/22-rdf-syntax-ns#"
   xmlns:svg="http://www.w3.org/2000/svg"
   xmlns="http://www.w3.org/2000/svg"
   xmlns:sodipodi="http://sodipodi.sourceforge.net/DTD/sodipodi-0.dtd"
   xmlns:inkscape="http://www.inkscape.org/namespaces/inkscape"
   version="1.1"
   id="Layer_1"
   x="0px"
   y="0px"
   viewBox="0 0 90 91.300003"
   xml:space="preserve"
   sodipodi:docname="MCA_Restaurant Icon.svg"
   width="90"
   height="91.300003"
   inkscape:version="1.0.1 (3bc2e813f5, 2020-09-07)"><metadata
   id="metadata276"><rdf:RDF><cc:Work
       rdf:about=""><dc:format>image/svg+xml</dc:format><dc:type
         rdf:resource="http://purl.org/dc/dcmitype/StillImage" /><dc:title></dc:title></cc:Work></rdf:RDF></metadata><defs
   id="defs274" /><sodipodi:namedview
   pagecolor="#ffffff"
   bordercolor="#666666"
   borderopacity="1"
   objecttolerance="10"
   gridtolerance="10"
   guidetolerance="10"
   inkscape:pageopacity="0"
   inkscape:pageshadow="2"
   inkscape:window-width="2400"
   inkscape:window-height="1271"
   id="namedview272"
   showgrid="false"
   fit-margin-top="0"
   fit-margin-left="0"
   fit-margin-right="0"
   fit-margin-bottom="0"
   inkscape:zoom="8.3"
   inkscape:cx="44.9"
   inkscape:cy="46"
   inkscape:window-x="2391"
   inkscape:window-y="-9"
   inkscape:window-maximized="1"
   inkscape:current-layer="Layer_1" />
<style
   type="text/css"
   id="style231">
	.st0{fill:#4E6E60;}
</style>
<g
   id="g269"
   transform="translate(-5.1,-4)">
	<path
   class="st0"
   d="M 91.4,95.3 H 8.9 C 8.2,95.3 7.5,94.7 7.5,93.9 V 46.6 h 2.7 v 46 H 90 v -46 h 2.7 V 94 c 0,0.7 -0.6,1.3 -1.3,1.3 z"
   id="path233" />
	<g
   id="g249">
		<path
   class="st0"
   d="m 12.7,49.3 c -4.2,0 -7.6,-3.4 -7.6,-7.6 l 2.4,-16.3 2.7,0.4 -2.4,16.1 c 0,2.5 2.2,4.7 4.9,4.7 2.7,0 4.9,-2.2 4.9,-4.9 V 25.2 h 2.7 v 16.4 c 0,4.2 -3.4,7.7 -7.6,7.7 z"
   id="path235" />
		<path
   class="st0"
   d="m 25.2,49.3 c -4.2,0 -7.6,-3.4 -7.6,-7.6 h 2.7 c 0,2.7 2.2,4.9 4.9,4.9 2.7,0 4.9,-2.2 4.9,-4.9 V 25.2 h 2.7 v 16.4 c 0,4.2 -3.4,7.7 -7.6,7.7 z"
   id="path237" />
		<path
   class="st0"
   d="M 37.6,49.3 C 33.4,49.3 30,45.9 30,41.7 h 2.7 c 0,2.7 2.2,4.9 4.9,4.9 2.7,0 4.9,-2.2 4.9,-4.9 V 25.2 h 2.7 v 16.4 c 0,4.2 -3.4,7.7 -7.6,7.7 z"
   id="path239" />
		<path
   class="st0"
   d="m 50.1,49.3 c -4.2,0 -7.6,-3.4 -7.6,-7.6 h 2.7 c 0,2.7 2.2,4.9 4.9,4.9 2.7,0 4.9,-2.2 4.9,-4.9 V 25.2 h 2.7 v 16.4 c 0,4.2 -3.4,7.7 -7.6,7.7 z"
   id="path241" />
		<path
   class="st0"
   d="M 62.6,49.3 C 58.4,49.3 55,45.9 55,41.7 h 2.7 c 0,2.7 2.2,4.9 4.9,4.9 2.7,0 4.9,-2.2 4.9,-4.9 V 25.2 h 2.7 v 16.4 c 0,4.2 -3.4,7.7 -7.6,7.7 z"
   id="path243" />
		<path
   class="st0"
   d="m 75.1,49.3 c -4.2,0 -7.6,-3.4 -7.6,-7.6 h 2.7 c 0,2.7 2.2,4.9 4.9,4.9 2.7,0 4.9,-2.2 4.9,-4.9 V 25.2 h 2.7 v 16.4 c 0,4.2 -3.4,7.7 -7.6,7.7 z"
   id="path245" />
		<path
   class="st0"
   d="m 87.5,49.3 c -4.2,0 -7.6,-3.4 -7.6,-7.6 h 2.7 c 0,2.7 2.2,4.9 4.9,4.9 2.7,0 4.9,-2.2 4.9,-4.9 L 90,25.8 l 2.7,-0.4 2.4,16.1 c 0,4.3 -3.4,7.8 -7.6,7.8 z"
   id="path247" />
	</g>
	<rect
   x="8.8999996"
   y="24.200001"
   class="st0"
   width="83"
   height="2.7"
   id="rect251" />
	<rect
   x="34.400002"
   y="47.900002"
   class="st0"
   width="2.7"
   height="46.099998"
   id="rect253" />
	<path
   class="st0"
   d="m 54,82.2 c -0.4,0 -0.7,-0.1 -1,-0.4 L 45.4,74 c -0.5,-0.5 -0.5,-1.4 0,-1.9 0.5,-0.5 1.4,-0.5 1.9,0 l 7.6,7.8 c 0.5,0.5 0.5,1.4 0,1.9 -0.3,0.2 -0.6,0.4 -0.9,0.4 z"
   id="path255" />
	<path
   class="st0"
   d="m 60.4,82.2 c -0.4,0 -0.7,-0.1 -1,-0.4 L 51.8,74 c -0.5,-0.5 -0.5,-1.4 0,-1.9 0.5,-0.5 1.4,-0.5 1.9,0 l 7.6,7.8 c 0.5,0.5 0.5,1.4 0,1.9 -0.2,0.2 -0.6,0.4 -0.9,0.4 z"
   id="path257" />
	<path
   class="st0"
   d="m 28.8,84.9 h -13 c -0.7,0 -1.4,-0.6 -1.4,-1.4 v -10 c 0,-0.7 0.6,-1.4 1.4,-1.4 h 13.1 c 0.7,0 1.4,0.6 1.4,1.4 v 10 c -0.1,0.8 -0.7,1.4 -1.5,1.4 z M 17.1,82.2 H 27.4 V 74.9 H 17.1 Z"
   id="path259" />
	<path
   class="st0"
   d="m 28.8,69.4 h -13 c -0.7,0 -1.4,-0.6 -1.4,-1.4 V 58 h 2.7 v 8.6 H 27.4 V 58 h 2.7 v 10 c 0.1,0.8 -0.5,1.4 -1.3,1.4 z"
   id="path261" />
	<path
   class="st0"
   d="m 30.2,58.4 h -2.7 c 0,-3.2 -2.3,-5.7 -5.2,-5.7 -2.9,0 -5.2,2.6 -5.2,5.7 h -2.7 c 0,-4.7 3.5,-8.4 7.9,-8.4 4.4,0 7.9,3.7 7.9,8.4 z"
   id="path263" />
	<path
   class="st0"
   d="M 92.7,25.6 H 90 V 12.8 H 63.8 c -0.5,0 -1,-0.3 -1.2,-0.8 L 62.5,11.7 C 61,8.8 55.8,6.7 50,6.7 c -5.7,0 -10.8,2 -12.3,5 l -0.2,0.5 C 37.3,12.7 36.8,13 36.3,13 h -26 V 25.8 H 7.5 V 11.5 c 0,-0.7 0.6,-1.4 1.4,-1.4 H 35.5 C 37.6,6.4 43.4,4 50,4 c 6.7,0 12.4,2.5 14.6,6.2 h 26.7 c 0.7,0 1.4,0.6 1.4,1.4 z"
   id="path265" />
	<rect
   x="6.8000002"
   y="37.799999"
   class="st0"
   width="86.599998"
   height="2.7"
   id="rect267" />
</g>
</svg>
