<?xml version="1.0" encoding="UTF-8" standalone="no"?>
<svg
   xmlns:dc="http://purl.org/dc/elements/1.1/"
   xmlns:cc="http://creativecommons.org/ns#"
   xmlns:rdf="http://www.w3.org/1999/02/22-rdf-syntax-ns#"
   xmlns:svg="http://www.w3.org/2000/svg"
   xmlns="http://www.w3.org/2000/svg"
   xmlns:sodipodi="http://sodipodi.sourceforge.net/DTD/sodipodi-0.dtd"
   xmlns:inkscape="http://www.inkscape.org/namespaces/inkscape"
   version="1.1"
   id="Layer_1"
   x="0px"
   y="0px"
   viewBox="0 0 65.800003 89.300003"
   xml:space="preserve"
   sodipodi:docname="MCA_Phone in Hand Icon.svg"
   width="65.800003"
   height="89.300003"
   inkscape:version="1.0.1 (3bc2e813f5, 2020-09-07)"><metadata
   id="metadata182"><rdf:RDF><cc:Work
       rdf:about=""><dc:format>image/svg+xml</dc:format><dc:type
         rdf:resource="http://purl.org/dc/dcmitype/StillImage" /><dc:title></dc:title></cc:Work></rdf:RDF></metadata><defs
   id="defs180" /><sodipodi:namedview
   pagecolor="#ffffff"
   bordercolor="#666666"
   borderopacity="1"
   objecttolerance="10"
   gridtolerance="10"
   guidetolerance="10"
   inkscape:pageopacity="0"
   inkscape:pageshadow="2"
   inkscape:window-width="2400"
   inkscape:window-height="1271"
   id="namedview178"
   showgrid="false"
   fit-margin-top="0"
   fit-margin-left="0"
   fit-margin-right="0"
   fit-margin-bottom="0"
   inkscape:zoom="8.3"
   inkscape:cx="33.1"
   inkscape:cy="44.7"
   inkscape:window-x="2391"
   inkscape:window-y="-9"
   inkscape:window-maximized="1"
   inkscape:current-layer="Layer_1" />
<style
   type="text/css"
   id="style155">
	.st0{fill:#4E6E60;}
</style>
<g
   id="g175"
   transform="translate(-16.9,-5.3)">
	<path
   class="st0"
   d="M 75,79 H 40.7 V 76.3 H 73.6 V 8.1 h -39 V 61.2 H 32 V 6.7 C 32,6 32.6,5.3 33.4,5.3 H 75 c 0.7,0 1.4,0.6 1.4,1.4 v 70.9 c 0,0.8 -0.6,1.4 -1.4,1.4 z"
   id="path157" />
	<path
   class="st0"
   d="M 69.6,69.6 H 45.3 V 66.9 H 68.2 V 13.5 H 40.1 V 54.9 H 37.4 V 12.1 c 0,-0.7 0.6,-1.4 1.4,-1.4 h 30.8 c 0.7,0 1.4,0.6 1.4,1.4 v 56.1 c 0,0.8 -0.6,1.4 -1.4,1.4 z"
   id="path159" />
	<path
   class="st0"
   d="M 50.6,94.6 H 18.3 c -0.7,0 -1.4,-0.6 -1.4,-1.4 v -29 c 0,-0.1 0,-0.2 0,-0.3 l 7.8,-41 c 0,-0.1 0,-0.2 0.1,-0.3 0.9,-2.2 3.9,-5.9 9.2,-4.1 l -0.9,2.6 c -3.8,-1.3 -5.4,1.7 -5.7,2.4 l -7.8,40.7 v 27.5 h 29.6 v -2.6 c 0,-0.6 0.4,-1.1 1,-1.3 0.3,-0.1 6.9,-2.2 9.7,-10.8 l 2.6,0.8 C 59.9,85.8 54.3,89 52,90 v 3.1 c -0.1,0.9 -0.7,1.5 -1.4,1.5 z"
   id="path161" />
	<path
   class="st0"
   d="M 75.9,47.7 V 45 c 2.3,0 4.1,-1.8 4.1,-4.1 0,-2.3 -1.8,-4.1 -4.1,-4.1 v -2.7 c 3.8,0 6.8,3.1 6.8,6.8 0,3.7 -3.1,6.8 -6.8,6.8 z"
   id="path163" />
	<path
   class="st0"
   d="m 75.9,58.6 v -2.7 c 2.3,0 4.1,-1.8 4.1,-4.1 0,-2.3 -1.8,-4.1 -4.1,-4.1 V 45 c 3.8,0 6.8,3.1 6.8,6.8 0,3.7 -3.1,6.8 -6.8,6.8 z"
   id="path165" />
	<path
   class="st0"
   d="m 35.1,88.9 c -0.2,0 -0.4,-0.1 -0.6,-0.2 -0.7,-0.4 -0.9,-1.2 -0.6,-1.8 L 49.4,57.8 c 0.1,-0.2 3.6,-5.1 1.1,-7.3 -1.1,-0.9 -2.1,-1.3 -3.2,-1.2 -2.5,0.3 -4.5,3.2 -4.6,3.3 l -12,13.7 c -0.5,0.6 -1.3,0.6 -1.9,0.1 -0.6,-0.5 -0.6,-1.3 -0.1,-1.9 L 40.6,51 c 0,0 2.6,-3.8 6.4,-4.3 1.9,-0.2 3.7,0.4 5.3,1.8 4.4,3.9 -0.4,10.5 -0.6,10.8 L 36.3,88.2 c -0.2,0.4 -0.7,0.7 -1.2,0.7 z"
   id="path167" />
	<path
   class="st0"
   d="M 59.7,59.7 H 50.6 V 57 h 9.1 c 2,0 3.5,-1.6 3.5,-3.5 0,-2 -1.6,-3.5 -3.5,-3.5 h -9.6 v -2.7 h 9.6 c 3.4,0 6.2,2.8 6.2,6.3 0,3.3 -2.8,6.1 -6.2,6.1 z"
   id="path169" />
	<path
   class="st0"
   d="M 61.2,28.7 H 46.7 c -0.7,0 -1.4,-0.6 -1.4,-1.4 0,-0.8 0.7,-1.3 1.4,-1.3 h 14.4 c 0.7,0 1.4,0.6 1.4,1.4 0,0.8 -0.6,1.3 -1.3,1.3 z"
   id="path171" />
	<path
   class="st0"
   d="M 61.2,33.3 H 46.7 c -0.7,0 -1.4,-0.6 -1.4,-1.4 0,-0.7 0.6,-1.4 1.4,-1.4 h 14.4 c 0.7,0 1.4,0.6 1.4,1.4 0,0.8 -0.6,1.4 -1.3,1.4 z"
   id="path173" />
</g>
</svg>
