<svg id="Layer_1" data-name="Layer 1" xmlns="http://www.w3.org/2000/svg" width="187.24" height="55.11" viewBox="0 0 187.24 55.11"><defs><style>.cls-1{fill:#6fa287;}.cls-2{fill:#d7572b;}.cls-3{fill:#4f6e60;}</style></defs><title>Untitled-4</title><path class="cls-1" d="M3.54,28.51a1.32,1.32,0,0,0-.8-1.2.85.85,0,0,1-.61-1.06v0a1.21,1.21,0,0,0-.6-1.3,1.06,1.06,0,0,1-.5-1.3,1.46,1.46,0,0,0-.3-1.4,1.08,1.08,0,0,1-.3-1.3,1.11,1.11,0,0,0-.2-1.5,1.22,1.22,0,0,1-.1-1.3,1.6,1.6,0,0,0,.1-1.5.86.86,0,0,1,.1-1.22l.1-.08a1.24,1.24,0,0,0,.3-1.4,1,1,0,0,1,.3-1.3,1.37,1.37,0,0,0,.5-1.3,1.08,1.08,0,0,1,.6-1.3,1.37,1.37,0,0,0,.7-1.2,1,1,0,0,1,.5-1.1c.1,0,.2-.1.3-.1a1.27,1.27,0,0,0,.9-1.1.91.91,0,0,1,.83-1h.07c.6-.1,1-.4,1-1a.89.89,0,0,1,1-.8h0a1.51,1.51,0,0,0,1-.4,1.57,1.57,0,0,0,.2-.3,1,1,0,0,1,1.2-.7,1.37,1.37,0,0,0,1.3-.6,1,1,0,0,1,1.3-.5,1.25,1.25,0,0,0,1.4-.4,1.11,1.11,0,0,1,1.3-.3,1.08,1.08,0,0,0,1.4-.2,1.08,1.08,0,0,1,1.4-.1,1.2,1.2,0,0,0,1.4,0,1.08,1.08,0,0,1,1.4.1,1.37,1.37,0,0,0,1.4.2,1,1,0,0,1,1.38.28l0,0a1.11,1.11,0,0,0,1.3.4,1,1,0,0,1,1.3.5,1.26,1.26,0,0,0,1.3.6.92.92,0,0,1,1.1.7h0a1.39,1.39,0,0,0,1.2.9.92.92,0,0,1,1,.84.13.13,0,0,1,0,.06,1.26,1.26,0,0,0,1,1,1.08,1.08,0,0,1,1,.9v.2a1.17,1.17,0,0,0,.9,1.2.89.89,0,0,1,.71,1s0,0,0,.06a1.08,1.08,0,0,0,.7,1.2,1.14,1.14,0,0,1,.6,1.3A1.29,1.29,0,0,0,36,13a1.08,1.08,0,0,1,.3,1.4,1.11,1.11,0,0,0,.3,1.4,1.06,1.06,0,0,1,.2,1.4,1.07,1.07,0,0,0,.1,1.4,1.07,1.07,0,0,1-.1,1.4,1.39,1.39,0,0,0-.2,1.4.87.87,0,0,1-.17,1.22l-.13.08a1.08,1.08,0,0,0-.3,1.4,1.09,1.09,0,0,1-.4,1.3,1.37,1.37,0,0,0-.6,1.3,1.13,1.13,0,0,1-.6,1.2,1.3,1.3,0,0,0-.8,1.2.91.91,0,0,1-.8,1,1.18,1.18,0,0,0-1,1,1.08,1.08,0,0,1-1,1,1,1,0,0,0-1,1,1,1,0,0,1-.8.8h-.3a1.21,1.21,0,0,0-1.2.7,1,1,0,0,1-1.2.6,1.15,1.15,0,0,0-1.3.5,1.09,1.09,0,0,1-1.3.4,1.26,1.26,0,0,0-1.4.3,1,1,0,0,1-1.3.2,1.23,1.23,0,0,0-1.5.1,1.2,1.2,0,0,1-1.4,0,1.4,1.4,0,0,0-1.4-.1.93.93,0,0,1-1.31-.15l-.09-.15a1.41,1.41,0,0,0-1.4-.3.93.93,0,0,1-1.2-.3c-.1-.1-.2-.3-.3-.3a1.15,1.15,0,0,0-1.1-.3.92.92,0,0,1-1.19-.56v0a1.31,1.31,0,0,0-1.2-.8,1,1,0,0,1-1.1-.8,1.17,1.17,0,0,0-1.1-.9,1,1,0,0,1-1-1,1,1,0,0,0-1-1C3.74,29.41,3.49,29,3.54,28.51Zm28.1-10.6a13.25,13.25,0,1,0-13.5,13.2A13.25,13.25,0,0,0,31.64,17.91Z"/><path class="cls-1" d="M6.94,33.21l.3.3a1.41,1.41,0,0,0,1.1.3.61.61,0,0,1,.6.3,1.68,1.68,0,0,0,1.9,1c.3-.1.5,0,.7.3a1.48,1.48,0,0,0,2,.6.67.67,0,0,1,.8.2,1.55,1.55,0,0,0,2.1.3.54.54,0,0,1,.75,0l0,.06a1.49,1.49,0,0,0,1.3.3h.1c-.1.3-.1.4-.2.7-.3,1.8-.8,3.6-1.1,5.5-.5,2.4-1,4.9-1.5,7.2-.3,1.2-.5,2.5-.8,3.7,0,.1-.1.3-.2.3a.43.43,0,0,1-.61,0,.38.38,0,0,1-.09-.13c-.5-.5-1-1.1-1.5-1.6-1-1.1-1.9-2.3-2.9-3.4-.2-.2-.3-.3-.6-.2-2.3.7-4.5,1.3-6.7,2-.2.1-.3,0-.5-.1s-.2-.3-.1-.5c1.4-4.9,2.8-9.7,4.1-14.6A6.71,6.71,0,0,0,6.94,33.21Z"/><path class="cls-1" d="M29,33.81a7.93,7.93,0,0,1,.4,1.4l3.3,11.1c.4,1.5.9,2.9,1.3,4.4a.69.69,0,0,1-.4.8h-.3c-2.3-.6-4.6-1.1-6.8-1.7-.3-.1-.5,0-.7.3-1.3,1.6-2.6,3.1-3.8,4.7a.69.69,0,0,1-.6.3.5.5,0,0,1-.4-.5c-.2-1.1-.4-2.3-.6-3.5-.3-1.7-.7-3.5-1-5.2-.3-1.2-.5-2.5-.7-3.7a.89.89,0,0,1,.1-.5c.3-1.6.7-3.1,1-4.7a.22.22,0,0,1,.2-.2c.2,0,.3,0,.4.1a1.65,1.65,0,0,0,2.1-.3c.2-.3.4-.3.8-.2a1.66,1.66,0,0,0,2-.6c.2-.3.4-.3.7-.3a1.57,1.57,0,0,0,1.9-1,.42.42,0,0,1,.49-.33.45.45,0,0,1,.11,0C28.54,33.81,28.84,33.81,29,33.81Z"/><path class="cls-2" d="M57.64,17.41c-1.4,2.2-2.1,4.5-2.9,8.1-2.6,11.3-4.5,22-12.1,22a4,4,0,0,1-4.15-3.1c-.3-1.2.2-2.6,1.7-2.6.8,0,1,.4,1.4,1.1A1.53,1.53,0,0,0,43,44c4.8,0,6.2-10.7,8.7-19.4,1-3.4,2.1-8,3.6-9.8a2.26,2.26,0,0,1,1.6-1,1.49,1.49,0,0,1,1.59,1.38.49.49,0,0,1,0,.12A4.68,4.68,0,0,1,57.64,17.41Zm10.3,32.4a1.83,1.83,0,0,1-2.7,1.4c-3.7-1.6-7.8-7-7.8-17.4,0-1.5-.1-4.5,1.9-4.5,4,0,7-3.2,7-7.9,0-5.5-3.6-8.9-9.4-8.9a13.27,13.27,0,0,0-13.7,12.83c0,.26,0,.52,0,.77a12.82,12.82,0,0,0,2.6,7.8c.8,1,1,2,.3,2.8s-2,.6-2.9-.5a15,15,0,0,1-3.5-9.9,16.7,16.7,0,0,1,16.39-17h.71c7.6,0,12.7,4.9,12.7,12.3,0,5.5-3.4,9.9-8.8,10.9a4.06,4.06,0,0,0-.2,1.5c0,8.8,3.6,13.2,5.7,14.1C67.54,48.41,67.94,48.81,67.94,49.81Z"/><path class="cls-2" d="M90.54,31.41c-3.6,8.1-9.4,11.4-14.3,11.4s-7.5-3.4-6.9-9.3c.8-7,5.1-13.4,11.3-13.4a4,4,0,0,1,4.29,3.56,4.87,4.87,0,0,1,0,.54c0,4.9-6.2,8.5-11,8.5h-1c-.7,4.3.2,6.8,4.1,6.8,3.5,0,8.1-3.3,10.6-9.2.5-1.4,1-1.7,2-1.7C91,28.61,91,29.91,90.54,31.41Zm-16.9-2.1c4.2,0,7.8-2.7,7.8-4.7,0-.8-.5-1.2-1.4-1.2C76.74,23.41,74.64,26.41,73.64,29.31Z"/><path class="cls-2" d="M118.49,29.91a5.4,5.4,0,0,1-.3,1.6c-1.6,4.6-4.7,8.1-8.8,8.1a5.41,5.41,0,0,1-3.7-1.1c-1.6,2.6-3.5,4.5-5.5,4.5-2.6,0-3.5-3-3.6-6.8,0,0-1,1.9-2,3.5-1.5,2.3-2.9,3.4-4.4,3.4-2.1,0-3.3-2.9-3.3-6.9s1.4-8.8,2.9-14.4c.3-1,.5-1.7,1.9-1.7a1.48,1.48,0,0,1,1.6,1.33,1.22,1.22,0,0,1,0,.27,3.7,3.7,0,0,1-.2,1c-1.6,6.2-2.9,10-2.9,14.9,0,.9.1,2.2.5,2.2,1,0,4.5-5.2,6.8-13.5.3-1,.7-1.6,1.9-1.6a1.55,1.55,0,0,1,1.6,1.5.67.67,0,0,1,0,.2c0,.3-.1.5-.1.8a28.07,28.07,0,0,0-1.1,8.4c0,2.4.1,4.2,1,4.2,1.2,0,2.4-1.7,3.5-4.2a17.61,17.61,0,0,1-.5-4.8c0-5.1,2.1-10.5,4.5-10.5h.1c1,0,1.7.8,1.7,3.1a33.08,33.08,0,0,1-2.7,11.8c.3.6.8,1.1,2.3,1.1,2.6,0,4.4-3.1,5.5-5.9.5-1.4,1-1.7,2-1.7S118.49,29.11,118.49,29.91Z"/><path class="cls-2" d="M129.94,42.81a4.29,4.29,0,0,1-4.5-4c-1.7,2.5-3.8,4-6.2,4-3.1,0-5-2.9-5-7.2,0-8.8,5.6-15.7,13.1-15.7,2.4,0,5.4,1,5.4,2.9a1.58,1.58,0,0,1-1.56,1.6h0c-1.4,0-1.4-1.2-4.3-1.2-5.4,0-9,6-9,12,0,2.3.8,4.2,2.1,4.2,2.8,0,5.4-4.2,7.5-11.4.5-1.6,1-1.8,1.8-1.8,1.4,0,2.1.8,1.5,2.8a31.48,31.48,0,0,0-1.5,7.8c0,1.6.3,2.6,1.5,2.6,1.9,0,4.2-3.4,6.4-9.2.5-1.4,1-1.7,2-1.7,1.6,0,1.6,1.3,1,2.9C137.24,38.51,133.64,42.81,129.94,42.81Z"/><path class="cls-2" d="M157.34,29.91a5.4,5.4,0,0,1-.3,1.6c-2.9,7.2-6.3,11.4-10.1,11.4-2.9,0-3.7-2.4-3.7-5.3s1.2-7.2,2.3-10.7c.1-.4.2-.7.3-1a14.8,14.8,0,0,1-3.6.7h-.3c-.4,1.1-1.7,4.7-1.9,4.9-.5,1.1-1,1.6-1.8,1.6a1.42,1.42,0,0,1-1.59-1.25.76.76,0,0,1,0-.15,2.7,2.7,0,0,1,.3-1.2c.3-.5,1.7-4.5,2-5.2a5.43,5.43,0,0,1-.8-3.2,3.9,3.9,0,0,1,3.59-4.19h.21a1.93,1.93,0,0,1,2.11,1.71,2,2,0,0,1,0,.49,8.82,8.82,0,0,1-.8,3.2,11.3,11.3,0,0,0,4.9-1.9,2.57,2.57,0,0,1,1.35-.4c1.1,0,1.3.7,1.3,1a2.51,2.51,0,0,1-.2.9c-2,6.3-3.8,12-3.8,14.9,0,1,.2,1.9.9,1.9,1.9,0,4.2-3.4,6.4-9.2.5-1.4,1-1.7,2-1.7C157,28.61,157.34,29.11,157.34,29.91Z"/><path class="cls-2" d="M175.84,30.31c.5-1.4,1-1.7,2-1.7,1.6,0,1.6,1.3,1,2.9-2.9,7.2-6.3,11.4-10.1,11.4-2.1,0-3.4-1.5-3.5-4v-1c-1.7,2.9-3.9,4.9-7,4.9s-5.3-2.5-5.3-6.9c0-8.2,5.6-15.9,12-15.9,1,0,1.6.4,1.6,1.3,0,1.1-.3,2-2.2,2-4.2,0-8,6.2-8,12.5,0,2.7,1,3.7,2.3,3.7,2.4,0,5.8-4.7,8.1-12.8l5.1-17.9a2.09,2.09,0,0,1,1.9-1.6c1.1,0,1.7,1.2,1.4,2.6l-4.9,17.5c-1.6,5.7-3.3,12.4-1.1,12.4C171.24,39.51,173.54,36.11,175.84,30.31Z"/><path class="cls-2" d="M187.24,34.61c0,4.8-2,8.1-6.2,8.1-1.7,0-3.6-1.5-3.6-3.2a1.54,1.54,0,0,1,1.37-1.69H179c1.1,0,1,1.6,2.5,1.6s2.3-2.6,2.3-4.6a14.05,14.05,0,0,0-3-8.5c-.8,2.2-1.9,4.9-1.9,5.1-.5,1.1-1,1.6-1.8,1.6-1.6,0-1.9-1.3-1.3-2.6.2-.4,2-5,2.7-6.8a7.23,7.23,0,0,1-.7-2.5c0-2,1.1-4,3.5-4a2.48,2.48,0,0,1,2.5,2.44v.06a7.05,7.05,0,0,1-1.1,3.4C185.49,27,187.24,30.31,187.24,34.61Z"/><path class="cls-3" d="M82.24,9c.1,1.7-.2,3.5,0,5.2,0,.3.1.7-.2.9s-.8,0-1.1,0-.7.2-.9-.3c-.2-.3,0-1,0-1.3a22.55,22.55,0,0,0,0-2.6V8.71c-.1.2-1.2,3.9-1.3,4.2a15,15,0,0,1-.6,1.9,1.78,1.78,0,0,1-1.6.2c-.4-.3-1.6-6.4-1.8-6.4a17.65,17.65,0,0,0,0,2.3v2.5c0,.5.3,1.6-.4,1.6a3.35,3.35,0,0,1-1,0c-.2,0-.6.2-.7,0s0-.5,0-.7V5.91c0-.3.1-.8.1-1.1s-.2-.7,0-.9.8,0,1,0,.5-.1.8-.1c.7,0,1,.2,1.1.9A14.42,14.42,0,0,0,76.49,7c.3.7.4,1.6.7,2.3a8.42,8.42,0,0,1,.3,1.2c.2.4.2.3.3.1a4.28,4.28,0,0,0,.3-1c.4-1.6,1-3.2,1.5-4.8.3-.9.4-1,1.4-1,.2,0,1.5-.1,1.5.2A21,21,0,0,0,82.24,9Z"/><path class="cls-3" d="M90.94,11.11c.3,0,.5-.1.7.2s0,.6,0,.9c-.1,1.6-.7,2.7-2.3,2.9-1.4.3-3.3,0-4-1.4a4.38,4.38,0,0,1-.3-2,22.55,22.55,0,0,0,0-2.6c0-1.5.2-3.2,1.9-3.6,1.5-.3,3.4-.3,4.3,1.1a2.57,2.57,0,0,1,.4,1.7c-.1.6-1.1.5-1.6.4-.3-.1-.3-.1-.3-.3a1.54,1.54,0,0,0-.4-.9,1.65,1.65,0,0,0-2,.1c-.5.6-.3,1.6-.3,2.3a5.58,5.58,0,0,0,.2,2.6,1.29,1.29,0,0,0,1.6.6c.9-.3.9-1.1.9-1.9C89.74,11,90.64,11.11,90.94,11.11Z"/><path class="cls-3" d="M97.64,3.91a2.72,2.72,0,0,1,.9,0c.4.2.4.9.5,1.2.3,1.2.6,2.5,1,3.7a29.24,29.24,0,0,1,1,4c.2.6.3,1.2.5,1.7.2.7-.4.5-1,.4a3.35,3.35,0,0,1-1,0c-.3-.1-.3-.2-.3-.5a7.24,7.24,0,0,0-.6-1.9c-.2-.1-.6,0-.8,0h-1c-.8,0-.8.4-1,1-.1.3-.1,1.2-.5,1.5-.2.1-.5,0-.8,0a3.35,3.35,0,0,1-1,0c-.6-.2-.3-.7-.1-1.1.2-.8.4-1.6.6-2.3.4-1.5.8-2.9,1.1-4.3a15,15,0,0,0,.5-2,11.7,11.7,0,0,1,.4-1.4Zm-.1,4c-.1,0-.2.8-.2.9a6,6,0,0,0-.3,1.3c-.2.4-.1.3.3.4.2,0,.9.2,1,0A16,16,0,0,0,97.54,7.91Z"/><path class="cls-3" d="M106.14,11.21a6.55,6.55,0,0,0,0,1.4c0,.2,0,.3.1.4s.4,0,.6,0a9.65,9.65,0,0,1,1.7,0c.3,0,1.2-.2,1.4.3.1.2,0,.6,0,.9s.1.6-.1.9-1.3.1-1.6.1c-1.2.1-2.5,0-3.6,0-.6,0-.6-.3-.6-.8a14.72,14.72,0,0,0,0-2.1c0-1.3,0-2.6.1-3.9a17.65,17.65,0,0,0,0-2.3V5c0-.3-.1-.7,0-.9s.8-.2,1.1-.2,1-.1,1,.2C106.14,6.51,106.24,8.81,106.14,11.21Z"/><path class="cls-3" d="M112.34,10.71c.1-1.3-.1-2.6-.1-3.9V5a2.72,2.72,0,0,1,0-.9c.1-.3.1-.3.4-.3a6.55,6.55,0,0,1,1.4,0c.5,0,.5.3.5.8-.1,2.2-.1,4.2,0,6.3V13a8.55,8.55,0,0,1,0,1.6c-.2.6-.7.4-1.1.4-.1,0-1,.1-1-.2C112.34,13.51,112.34,12.11,112.34,10.71Z"/><path class="cls-3" d="M123.74,13.81a3.22,3.22,0,0,1-1.8,1.2,4.2,4.2,0,0,1-4-1c-.4-.4-1-1-.5-1.6.3-.3,1.3-1.1,1.6-1s.3.5.4.7a3.47,3.47,0,0,0,1,.7A1.25,1.25,0,0,0,122,12a.83.83,0,0,0,0-.15c0-.7-1-1.1-1.6-1.5a12.62,12.62,0,0,1-2.1-1,3,3,0,0,1-1.2-1.6,2.62,2.62,0,0,1,.4-2.4,4.08,4.08,0,0,1,4.3-1.4,4.3,4.3,0,0,1,1.6,1.3c.1.2.3.4.4.6.1.4-.4.7-.7.9s-.5.5-.8.5-.6-.6-.8-.9a1.6,1.6,0,0,0-2.26,0l0,0c-.6,1,1.6,1.5,2.2,1.7a10.25,10.25,0,0,1,2.1,1.4,3.45,3.45,0,0,1,.7,3.2A1.5,1.5,0,0,1,123.74,13.81Z"/><path class="cls-3" d="M126.14,4.81c0-.2-.1-.5,0-.7.3-.5,1.3-.3,1.7-.3.7,0,1.5.1,2.2.1a19.57,19.57,0,0,1,2.3-.1c.5,0,1-.2,1.1.4.1.3.1,1.5-.2,1.6s-.4,0-.6,0a3.35,3.35,0,0,1-1,0c-.9-.1-.7.2-.7.9,0,1.3-.1,2.7,0,4,0,.7-.1,1.3-.1,2l.1,1a3.35,3.35,0,0,1,0,1c-.2.3-.9.2-1.3.2-.8-.1-1,0-1-.8,0-1.5-.1-3,0-4.5a20.85,20.85,0,0,0,0-2.5,3.35,3.35,0,0,0,0-1c0-.3-.1-.3-.4-.3s-2.2.3-2.2-.1A1.27,1.27,0,0,0,126.14,4.81Z"/><path class="cls-3" d="M135.84,11.71V9.31a17.78,17.78,0,0,0-.1-2.3V5c0-.3-.2-.9,0-1,.2-.3.6-.1.8-.1a26.15,26.15,0,0,0,2.8,0h1.5c.3,0,.7-.2.9,0s.1,1,.1,1.2.2.8-.3.9a5.65,5.65,0,0,1-1.3,0h-1.3c-.3,0-.6-.2-.9,0s-.1,1-.1,1.2-.1.9.1,1a4,4,0,0,0,1.2,0,6.55,6.55,0,0,1,1.4,0c.4.1.3.3.3.8,0,.3.2,1,0,1.2a1.22,1.22,0,0,1-.9.3,3.69,3.69,0,0,0-1,.1,3.35,3.35,0,0,0-1,0c-.4.1-.2,1.4-.2,1.7a1.32,1.32,0,0,0,.2.7,5.15,5.15,0,0,0,1.3.1h1.6c.6-.1.8,0,.8.5a4.82,4.82,0,0,1,0,1.2c-.1.4-.4.3-.9.3s-5.2.3-5.2,0C135.74,14,135.84,12.81,135.84,11.71Z"/><path class="cls-3" d="M150.84,13.61c.2.3.7,1.2.4,1.5s-.8,0-1,0-.6.2-.9.1-.7-1-.9-1.5-.4-1.4-.9-1.6c-.8-.3-.7.6-.7,1s.2,1.6-.2,1.9c-.2.1-.5,0-.8,0a3.35,3.35,0,0,1-1,0c-.5-.2-.3-1-.3-1.5V11c.1-1.5,0-2.9.1-4.4V4.81c0-.2-.1-.6,0-.8s.5-.2.8-.2c.7,0,1.5-.1,2.2-.1a6,6,0,0,1,2.3.3c1.2.8,1.4,2.3,1.4,3.6,0,1.5.2,3.2-1.4,3.9.1.3.3.6.4.9A4,4,0,0,0,150.84,13.61Zm-3.6-7.5c-.5.1-.5.3-.5.8a12.05,12.05,0,0,1,0,1.9c0,.2,0,1,.2,1,.2.2.9.1,1.1,0,1.2-.1,1.1-1.5,1.1-2.4A1.4,1.4,0,0,0,147.71,6,1.5,1.5,0,0,0,147.24,6.11Z"/><path class="cls-3" d="M155.49,4.31c-.1.3-.1.8-.5.9-.6.1-.5-.5-.6-1a2.72,2.72,0,0,1,0-.9c.2-.3.8-.1,1-.1S155.49,4.21,155.49,4.31Z"/><path class="cls-3" d="M162,15.11a3.92,3.92,0,0,1-4.2-1.7c-.4-.7.3-1,.8-1.5.2-.2.4-.5.7-.5s.4.6.6.8a1.52,1.52,0,0,0,2,.4c.8-.4.6-1.3,0-1.8a9.6,9.6,0,0,0-2.3-1,3.63,3.63,0,0,1-1.9-1.8,2.89,2.89,0,0,1,1.2-3.6,4.07,4.07,0,0,1,4.6.1c.4.3,1.3,1.3.8,1.8a4.41,4.41,0,0,1-.9.6c-.4.3-.4.3-.8,0-.6-.6-1.2-1.2-2.2-.9s-.3,1.4.3,1.6c1.6.7,4.2,1.6,4.2,3.8A3.58,3.58,0,0,1,162,15.11Z"/><path class="cls-3" d="M25.84,15.21h.65v-1.1h-3.8v1.1h.6l-1.2,3.2h-3.6a1.62,1.62,0,0,1-1.7-1.55v-.15A1.52,1.52,0,0,1,18.11,15h.08a3.41,3.41,0,0,1,1,.3.7.7,0,0,0-.2.4.78.78,0,0,0,.78.8h0a.86.86,0,0,0,.91-.82,1.09,1.09,0,0,0,0-.18c0-.9-1-1.8-2.5-1.8a2.85,2.85,0,0,0,.2,5.7h3.3l-.3.9h-.3v1.1h2.2v-1.1h-.4l.3-.9h3.1l.3.9h-.4v1.1h2.2v-1.1H28Zm-2.4,3,1-2.9,1,2.9.1.3h-2.3Z"/><path class="cls-3" d="M28.24,14.21a.53.53,0,0,1-.3-.5.85.85,0,0,1,.3-.6.9.9,0,0,1,1.27.07,1,1,0,0,1,.23.53c0,.2-.1.3-.3.5a.82.82,0,0,1,.4.8.88.88,0,0,1-.3.7,1.14,1.14,0,0,1-.8.3,1.24,1.24,0,0,1-.8-.3,1.32,1.32,0,0,1-.2-.7,1.21,1.21,0,0,1,.5-.8m.3,1.1a1.21,1.21,0,0,0,.3.2c.2,0,.3-.1.3-.2a1.57,1.57,0,0,0,.2-.3c0-.1-.1-.3-.2-.3a2.23,2.23,0,0,0-.3-.2c-.2,0-.3.1-.3.2s-.2.2-.2.3,0,.2.2.3m.7-1.6a.3.3,0,0,0-.6,0,.41.41,0,0,0,.3.3.31.31,0,0,0,.3-.3"/><path class="cls-3" d="M28.24,19.41l.7-1h-.2c-.3,0-.4-.1-.7-.3a.88.88,0,0,1-.3-.7,1.32,1.32,0,0,1,.3-.8,1,1,0,0,1,.8-.3,1.38,1.38,0,0,1,.8.3,1,1,0,0,1,.3.8c0,.2,0,.3-.1.4a3.36,3.36,0,0,0-.3.6l-.7,1Zm1.2-2a.54.54,0,0,0-.2-.4.84.84,0,0,0-.4-.2.54.54,0,0,0-.4.2c-.3,0-.3.2-.3.4a.48.48,0,0,0,.2.4.7.7,0,0,0,.4.2c.5-.1.7-.4.7-.6"/><polygon class="cls-3" points="14.94 14.01 13.14 14.01 10.74 18.21 8.44 14.01 6.64 14.01 6.64 15.21 7.34 15.21 7.34 20.41 6.84 20.41 6.84 21.61 9.04 21.61 9.04 20.41 8.54 20.41 8.54 16.51 10.34 19.71 11.24 19.71 12.94 16.51 12.94 20.41 12.54 20.41 12.54 21.61 14.64 21.61 14.64 20.41 14.24 20.41 14.24 15.21 14.94 15.21 14.94 14.01"/></svg>