<svg xmlns="http://www.w3.org/2000/svg" width="38" height="38" viewBox="0 0 38 38">
    <defs>
        <path id="a" d="M0 0h37.238v38H0z"/>
    </defs>
    <g fill="none" fill-rule="evenodd">
        <path fill="#4267B2" d="M2.054 0C.92 0 0 .939 0 2.097v33.806C0 37.061.92 38 2.054 38h17.849V23.304h-4.848v-5.752h4.848V13.32c0-4.908 2.94-7.58 7.229-7.58 1.445-.004 2.89.07 4.327.222v5.13h-2.952c-2.338 0-2.794 1.127-2.794 2.791v3.663H31.3l-.726 5.752h-4.892V38h9.502c1.135 0 2.055-.939 2.055-2.097V2.097C37.238.939 36.318 0 35.183 0H2.054z"/>
        <path fill="#FFF" d="M25.681 38V23.304h4.86l.726-5.752H25.68V13.89c0-1.664.456-2.791 2.793-2.791h2.985V5.962a40.422 40.422 0 0 0-4.333-.223c-4.295 0-7.223 2.673-7.223 7.58v4.233h-4.847v5.752h4.847V38h5.778z"/>
    </g>
</svg>
