<svg xmlns="http://www.w3.org/2000/svg" width="38" height="38" viewBox="0 0 38 38">
    <g fill="none" fill-rule="evenodd">
        <rect width="37.238" height="38" fill="#5F6263" rx="2.125"/>
        <path fill="#FEFEFE" d="M25.938 24.825c0 1.057-.829 1.916-1.85 1.916H12.243c-1.022 0-1.85-.86-1.85-1.916v-8.19h2.882a5.59 5.59 0 0 0-.39 2.053c0 3.017 2.368 5.472 5.28 5.472 2.91 0 5.279-2.455 5.279-5.472 0-.726-.14-1.418-.39-2.052h2.883v8.19zm-10.527-8.19c.618-.886 1.62-1.467 2.754-1.467s2.138.58 2.755 1.468c.404.578.644 1.286.644 2.052 0 1.942-1.525 3.52-3.399 3.52-1.873 0-3.398-1.578-3.398-3.52 0-.766.241-1.474.644-2.052zm9.747-5.643l.427-.002v3.39l-3.263.013-.01-3.391 2.846-.01zm-1.07-2.306H12.243c-2.058 0-3.733 1.735-3.733 3.866v12.274c0 2.13 1.675 3.864 3.733 3.864h11.843c2.058 0 3.732-1.733 3.732-3.865V12.552c0-2.131-1.674-3.866-3.732-3.866z"/>
    </g>
</svg>
