<svg xmlns="http://www.w3.org/2000/svg" width="38" height="38" viewBox="0 0 38 38">
    <g fill="none" fill-rule="evenodd">
        <rect width="37.238" height="38" fill="#64CCEE" rx="2.125"/>
        <path fill="#FEFEFE" d="M27.852 12.785a7.706 7.706 0 0 1-2.28.647 4.086 4.086 0 0 0 1.745-2.274 7.745 7.745 0 0 1-2.52.996 3.897 3.897 0 0 0-2.896-1.297c-2.19 0-3.966 1.84-3.966 4.11 0 .323.033.636.102.937-3.299-.172-6.222-1.806-8.18-4.295a4.226 4.226 0 0 0-.536 2.067c0 1.426.7 2.685 1.764 3.422a3.866 3.866 0 0 1-1.798-.513v.05c0 1.993 1.369 3.655 3.184 4.032a3.743 3.743 0 0 1-1.047.144c-.254 0-.504-.024-.744-.073.503 1.633 1.968 2.823 3.705 2.854a7.782 7.782 0 0 1-5.874 1.704 10.964 10.964 0 0 0 6.082 1.847c7.299 0 11.29-6.265 11.29-11.698 0-.178-.004-.357-.011-.531a8.242 8.242 0 0 0 1.98-2.13"/>
    </g>
</svg>
