<svg xmlns="http://www.w3.org/2000/svg" width="456" height="4" viewBox="0 0 456 4" preserveAspectRatio="none">
    <path fill="#EED484" fill-rule="evenodd" d="M.036 2.458c.316-.692.97-1.202 1.44-1.42C2.74.448 3.83.277 7.234.468c.219.013 1.314-.06 1.439 0 .367.178 2.544.531 3.597.57-.02-.001 2.716-.712 3.6-.285 1.165.563 6.011.157 9.355.285 1.134.042 2.579.266 3.598.284.56.01 2.844-.649 3.597-.284.573.275 1.908.291 4.32.284 1.585-.006 3.462.07 5.038 0 1.47-.066 2.197-.28 3.597-.284 3.014-.012 5.708.302 8.637.284 1.366-.01 2.95-.252 4.317-.284 4.319-.105 10.38.171 14.393.567 1.053.105 2.508-.003 3.598 0 .8.004.44-.261.72-.283.272-.022 1.93.266 2.879.283 1.72.033 3.222-.048 5.037 0 1.498.041 2.944.308 4.317.285 2.636-.045 5.028-.54 7.917-.568 1.634-.016 3.335.232 5.038.283 4.523.137 10.151.222 15.113.285 2.422.03 4.904.053 7.197 0 4.255-.099 10.553-.086 16.551-.285.452-.014 1.002.044 1.44 0 .319-.03.883-.285.72-.283 1.136-.017 4.493.783 5.757.283.327-.129 1.436-.44 3.597-.283.703.05 1.071.292 2.16.283 2.005-.015 3.784-.24 5.758-.283.553-.013.753.355 1.44.283.168-.017.083-.264.718-.283 12.72-.399 29.291.011 43.18 0 .134 0 .74-.39 1.44-.284.271.04.02.251.72.284 1.444.066 5.654.223 7.916 0 6.097-.602 17.68.402 25.907.232 4.351-.09 8.52-.157 12.955-.284 2.77-.08 5.66-.55 9.354-.285.699.051 1.069.304 2.158.285.621-.011 1.692-.243 2.88-.285 3.592-.127 7.84-.453 12.955-.284.45.015 1-.043 1.438 0 .303.03.904.286.721.284 1.972.016 3.895-.275 5.757-.284 9.13-.046 18.405.362 27.11.172 6.291-.137 13.485-.091 20.28-.262 1.192-.03 2.408.042 3.598 0 1.426-.05 1.943-.268 2.878-.285 1.288-.022 1.518.297 2.88.285.604-.005 1.693-.25 2.879-.285 1.186-.033 2.417.058 3.597 0 1.715-.082 3.36-.393 6.477-.283 1.401.049 1.974.277 2.88.283 3.007.024 5.471-.471 9.355-.283 1.259.06 1.542.278 2.88.283 3.209.014 6.252.17 10.468.266.527.012.782.353 1.438.285.213-.023.004-.294.72-.285.622.008 1.566-.07 2.16 0 .278.033.889.29.718.285 1.582.043 1.835-.27 2.879-.285 9.563-.143 19.583.454 28.2.233.948-.024 1.942.05 2.88 0 1.596-.083 2.266-.676 4.318-.568 1.336.07.725.142 2.16 0 1.544-.152 1.868.262 2.878.284.593.014 1.128-.35 2.158-.284.057.004.159.273.72.284 1.104.023 3.839-.258 5.757-.284.602-.008 1.124.34 2.16.284.589-.03.712-.304 1.44-.284.577.016 1.21.246 2.157.284 2.025.085 3.43.056 6.477.284.044.004-.034.264 0 .285.655.078 2.419 1.06.721 1.137.699.982-1.655.321-2.16.284-2.782-.201-3.868-.419-7.196-.568-.656-.03-1.529.075-2.16 0-.281-.034-3.996-.42-6.476 0-.326.055.064.278-.72.284-.517.004-1.77-.245-2.878-.284-4.945-.174-11.399.229-17.272.284-4.931.047-10.01-.149-15.197-.082-4.045.052-8.917-.185-13.006-.152-9.143.075-18.91-.448-27.738-.265-9.832.203-19.016.147-28.068.284-1.893.03-2.767.44-4.319 0-1.506.445-3.637-.13-5.166-.022-1.667.118-.918.194-2.879 0-1.441-.142-1.832.193-3.598.285-.943.049-1.932-.042-2.879 0-6.48.284-19.617-.67-29.268-.172-.05.001-.143.283-.721.283-.63 0-.656-.283-.72-.283-5.094-.036-10.305.223-15.831.283-.552.007-1.192-.283-2.16-.283-1.667 0-1.369.504-3.597.283-.287-.028-.931-.283-.722-.283-.566 0-.736.27-1.438.283-1.894.037-3.789-.056-5.757 0-1.27.037-2.87.237-4.319.285-13.986.467-28.095-.218-42.46.052.287-.006-.52.265-.72.284-2.313.23-13.785.345-17.27 0-.13-.013-1.754-.48-2.16-.284-1.052.508-7.43.255-10.795.284.103 0-.257.285-.72.285-.646 0-1.437-.31-3.598-.285-1.422.017-2.879.27-4.317.285-1.562.015-3.452-.303-5.037-.285.31-.003-.54.266-.72.285-3.326.328-10.501-.069-15.113 0-5.136.076-10.426.068-16.553.284-20.766.73-47.678.173-69.806 0-6.907-.054-14.078.23-20.872.284-9.495.075-18.716.228-28.065 0-1.162-.028-1.224-.237-2.16-.284.239.012-.382.45-.72.284-.603-.299-2.687-.244-5.036-.568-.807-.112-3.241-.078-2.88-.854"/>
</svg>
