<?xml version="1.0" encoding="UTF-8"?>
<svg width="4px" height="940px" viewBox="0 0 4 940" version="1.1" xmlns="http://www.w3.org/2000/svg" xmlns:xlink="http://www.w3.org/1999/xlink">
    <!-- Generator: Sketch 59.1 (86144) - https://sketch.com -->
    <title>divider-grey2</title>
    <desc>Created with Sketch.</desc>
    <g id="Page-1" stroke="none" stroke-width="1" fill="none" fill-rule="evenodd">
        <g id="divider-grey2" transform="translate(2.000000, 470.000000) rotate(90.000000) translate(-2.000000, -470.000000) translate(-468.000000, 468.000000)" fill="#D7D2CB">
            <path d="M0.075,2.458 C0.726,1.766 2.075,1.256 3.042,1.038 C5.648,0.448 7.897,0.277 14.912,0.468 C15.362,0.481 17.621,0.408 17.878,0.468 C18.634,0.646 23.123,0.999 25.294,1.038 C25.253,1.037 30.893,0.326 32.713,0.753 C35.117,1.316 45.106,0.91 51.999,1.038 C54.336,1.08 57.315,1.304 59.415,1.322 C60.572,1.332 65.278,0.673 66.831,1.038 C68.011,1.313 70.763,1.329 75.734,1.322 C79.003,1.316 82.873,1.392 86.121,1.322 C89.153,1.256 90.651,1.042 93.537,1.038 C99.75,1.026 105.302,1.34 111.34,1.322 C114.155,1.312 117.42,1.07 120.24,1.038 C129.142,0.933 141.638,1.209 149.91,1.605 C152.08,1.71 155.08,1.602 157.326,1.605 C158.976,1.609 158.234,1.344 158.81,1.322 C159.37,1.3 162.79,1.588 164.745,1.605 C168.291,1.638 171.387,1.557 175.129,1.605 C178.216,1.646 181.199,1.913 184.029,1.89 C189.461,1.845 194.392,1.35 200.347,1.322 C203.715,1.306 207.223,1.554 210.734,1.605 C220.058,1.742 231.659,1.827 241.888,1.89 C246.88,1.92 251.998,1.943 256.723,1.89 C265.495,1.791 278.478,1.804 290.842,1.605 C291.774,1.591 292.907,1.649 293.81,1.605 C294.467,1.575 295.63,1.32 295.293,1.322 C297.636,1.305 304.555,2.105 307.161,1.605 C307.836,1.476 310.123,1.165 314.577,1.322 C316.026,1.372 316.785,1.614 319.028,1.605 C323.161,1.59 326.83,1.365 330.898,1.322 C332.038,1.309 332.45,1.677 333.866,1.605 C334.214,1.588 334.039,1.341 335.347,1.322 C361.568,0.923 395.727,1.333 424.358,1.322 C424.635,1.322 425.886,0.932 427.326,1.038 C427.886,1.078 427.369,1.289 428.809,1.322 C431.789,1.388 440.467,1.545 445.129,1.322 C457.697,0.72 481.575,1.724 498.534,1.554 C507.504,1.464 516.097,1.397 525.239,1.27 C530.949,1.19 536.908,0.72 544.523,0.985 C545.963,1.036 546.725,1.289 548.971,1.27 C550.251,1.259 552.459,1.027 554.906,0.985 C562.311,0.858 571.068,0.532 581.612,0.701 C582.541,0.716 583.674,0.658 584.577,0.701 C585.202,0.731 586.44,0.987 586.063,0.985 C590.129,1.001 594.093,0.71 597.931,0.701 C616.75,0.655 635.871,1.063 653.816,0.873 C666.785,0.736 681.614,0.782 695.619,0.611 C698.079,0.581 700.585,0.653 703.039,0.611 C705.977,0.561 707.043,0.343 708.971,0.326 C711.626,0.304 712.099,0.623 714.906,0.611 C716.153,0.606 718.396,0.361 720.841,0.326 C723.286,0.293 725.824,0.384 728.257,0.326 C731.792,0.244 735.183,-0.067 741.609,0.043 C744.497,0.092 745.677,0.32 747.544,0.326 C753.744,0.35 758.824,-0.145 766.83,0.043 C769.424,0.103 770.008,0.321 772.766,0.326 C779.381,0.34 785.656,0.496 794.345,0.592 C795.432,0.604 795.957,0.945 797.31,0.877 C797.748,0.854 797.318,0.583 798.793,0.592 C800.076,0.6 802.021,0.522 803.245,0.592 C803.82,0.625 805.079,0.882 804.725,0.877 C807.988,0.92 808.508,0.607 810.661,0.592 C830.374,0.449 851.031,1.046 868.792,0.825 C870.746,0.801 872.797,0.875 874.73,0.825 C878.02,0.742 879.4,0.149 883.63,0.257 C886.385,0.327 885.126,0.399 888.082,0.257 C891.265,0.105 891.934,0.519 894.017,0.541 C895.237,0.555 896.342,0.191 898.465,0.257 C898.582,0.261 898.792,0.53 899.949,0.541 C902.224,0.564 907.862,0.283 911.817,0.257 C913.058,0.249 914.133,0.597 916.268,0.541 C917.483,0.511 917.738,0.237 919.236,0.257 C920.427,0.273 921.73,0.503 923.684,0.541 C927.858,0.626 930.753,0.597 937.035,0.825 C937.126,0.829 936.965,1.089 937.035,1.11 C938.385,1.188 942.021,2.17 938.522,2.247 C939.962,3.229 935.111,2.568 934.071,2.531 C928.334,2.33 926.097,2.112 919.236,1.963 C917.883,1.933 916.084,2.038 914.784,1.963 C914.203,1.929 906.544,1.543 901.433,1.963 C900.761,2.018 901.564,2.241 899.949,2.247 C898.883,2.251 896.301,2.002 894.017,1.963 C883.823,1.789 870.518,2.192 858.411,2.247 C848.247,2.294 837.775,2.098 827.085,2.165 C818.745,2.217 808.704,1.98 800.275,2.013 C781.425,2.088 761.292,1.565 743.095,1.748 C722.827,1.951 703.895,1.895 685.235,2.032 C681.333,2.062 679.531,2.472 676.333,2.032 C673.228,2.477 668.835,1.902 665.683,2.01 C662.246,2.128 663.791,2.204 659.748,2.01 C656.778,1.868 655.972,2.203 652.332,2.295 C650.387,2.344 648.348,2.253 646.397,2.295 C633.04,2.579 605.957,1.625 586.063,2.123 C585.958,2.124 585.768,2.406 584.577,2.406 C583.28,2.406 583.224,2.123 583.093,2.123 C572.593,2.087 561.849,2.346 550.458,2.406 C549.322,2.413 548.001,2.123 546.006,2.123 C542.569,2.123 543.185,2.627 538.59,2.406 C538,2.378 536.671,2.123 537.104,2.123 C535.935,2.123 535.584,2.393 534.139,2.406 C530.234,2.443 526.329,2.35 522.271,2.406 C519.651,2.443 516.357,2.643 513.369,2.691 C484.537,3.158 455.454,2.473 425.842,2.743 C426.432,2.737 424.767,3.008 424.358,3.027 C419.588,3.257 395.941,3.372 388.755,3.027 C388.49,3.014 385.139,2.547 384.304,2.743 C382.134,3.251 368.987,2.998 362.05,3.027 C362.263,3.027 361.521,3.312 360.566,3.312 C359.234,3.312 357.604,3.002 353.15,3.027 C350.217,3.044 347.215,3.297 344.25,3.312 C341.031,3.327 337.135,3.009 333.866,3.027 C334.506,3.024 332.754,3.293 332.383,3.312 C325.527,3.64 310.736,3.243 301.229,3.312 C290.64,3.388 279.737,3.38 267.107,3.596 C224.299,4.326 168.822,3.769 123.207,3.596 C108.971,3.542 94.188,3.826 80.183,3.88 C60.61,3.955 41.601,4.108 22.329,3.88 C19.934,3.852 19.805,3.643 17.878,3.596 C18.368,3.608 17.089,4.046 16.394,3.88 C15.149,3.581 10.853,3.636 6.01,3.312 C4.348,3.2 -0.67,3.234 0.075,2.458" id="Path"></path>
        </g>
    </g>
</svg>