<svg xmlns="http://www.w3.org/2000/svg" width="940" height="4" viewBox="0 0 940 4" preserveAspectRatio="none">
    <path fill="#D7D2CB" fill-rule="evenodd" d="M.075 2.458c.651-.692 2-1.202 2.967-1.42 2.606-.59 4.855-.761 11.87-.57.45.013 2.709-.06 2.966 0 .756.178 5.245.531 7.416.57-.041-.001 5.599-.712 7.419-.285 2.404.563 12.393.157 19.286.285 2.337.042 5.316.266 7.416.284 1.157.01 5.863-.649 7.416-.284 1.18.275 3.932.291 8.903.284 3.269-.006 7.139.07 10.387 0 3.032-.066 4.53-.28 7.416-.284 6.213-.012 11.765.302 17.803.284 2.815-.01 6.08-.252 8.9-.284 8.902-.105 21.398.171 29.67.567 2.17.105 5.17-.003 7.416 0 1.65.004.908-.261 1.484-.283.56-.022 3.98.266 5.935.283 3.546.033 6.642-.048 10.384 0 3.087.041 6.07.308 8.9.285 5.432-.045 10.363-.54 16.318-.568 3.368-.016 6.876.232 10.387.283 9.324.137 20.925.222 31.154.285 4.992.03 10.11.053 14.835 0 8.772-.099 21.755-.086 34.119-.285.932-.014 2.065.044 2.968 0 .657-.03 1.82-.285 1.483-.283 2.343-.017 9.262.783 11.868.283.675-.129 2.962-.44 7.416-.283 1.449.05 2.208.292 4.451.283 4.133-.015 7.802-.24 11.87-.283 1.14-.013 1.552.355 2.968.283.348-.017.173-.264 1.481-.283 26.221-.399 60.38.011 89.011 0 .277 0 1.528-.39 2.968-.284.56.04.043.251 1.483.284 2.98.066 11.658.223 16.32 0 12.568-.602 36.446.402 53.405.232 8.97-.09 17.563-.157 26.705-.284 5.71-.08 11.669-.55 19.284-.285 1.44.051 2.202.304 4.448.285 1.28-.011 3.488-.243 5.935-.285 7.405-.127 16.162-.453 26.706-.284.929.015 2.062-.043 2.965 0 .625.03 1.863.286 1.486.284 4.066.016 8.03-.275 11.868-.284 18.819-.046 37.94.362 55.885.172 12.969-.137 27.798-.091 41.803-.262 2.46-.03 4.966.042 7.42 0 2.938-.05 4.004-.268 5.932-.285 2.655-.022 3.128.297 5.935.285 1.247-.005 3.49-.25 5.935-.285 2.445-.033 4.983.058 7.416 0 3.535-.082 6.926-.393 13.352-.283 2.888.049 4.068.277 5.935.283 6.2.024 11.28-.471 19.286-.283 2.594.06 3.178.278 5.936.283 6.615.014 12.89.17 21.579.266 1.087.012 1.612.353 2.965.285.438-.023.008-.294 1.483-.285 1.283.008 3.228-.07 4.452 0 .575.033 1.834.29 1.48.285 3.263.043 3.783-.27 5.936-.285 19.713-.143 40.37.454 58.131.233 1.954-.024 4.005.05 5.938 0 3.29-.083 4.67-.676 8.9-.568 2.755.07 1.496.142 4.452 0 3.183-.152 3.852.262 5.935.284 1.22.014 2.325-.35 4.448-.284.117.004.327.273 1.484.284 2.275.023 7.913-.258 11.868-.284 1.241-.008 2.316.34 4.451.284 1.215-.03 1.47-.304 2.968-.284 1.191.016 2.494.246 4.448.284 4.174.085 7.069.056 13.351.284.091.004-.07.264 0 .285 1.35.078 4.986 1.06 1.487 1.137 1.44.982-3.411.321-4.451.284-5.737-.201-7.974-.419-14.835-.568-1.353-.03-3.152.075-4.452 0-.581-.034-8.24-.42-13.351 0-.672.055.131.278-1.484.284-1.066.004-3.648-.245-5.932-.284-10.194-.174-23.499.229-35.606.284-10.164.047-20.636-.149-31.326-.082-8.34.052-18.381-.185-26.81-.152-18.85.075-38.983-.448-57.18-.265-20.268.203-39.2.147-57.86.284-3.902.03-5.704.44-8.902 0-3.105.445-7.498-.13-10.65-.022-3.437.118-1.892.194-5.935 0-2.97-.142-3.776.193-7.416.285-1.945.049-3.984-.042-5.935 0-13.357.284-40.44-.67-60.334-.172-.105.001-.295.283-1.486.283-1.297 0-1.353-.283-1.484-.283-10.5-.036-21.244.223-32.635.283-1.136.007-2.457-.283-4.452-.283-3.437 0-2.821.504-7.416.283-.59-.028-1.919-.283-1.486-.283-1.169 0-1.52.27-2.965.283-3.905.037-7.81-.056-11.868 0-2.62.037-5.914.237-8.902.285-28.832.467-57.915-.218-87.527.052.59-.006-1.075.265-1.484.284-4.77.23-28.417.345-35.603 0-.265-.013-3.616-.48-4.451-.284-2.17.508-15.317.255-22.254.284.213 0-.529.285-1.484.285-1.332 0-2.962-.31-7.416-.285-2.933.017-5.935.27-8.9.285-3.219.015-7.115-.303-10.384-.285.64-.003-1.112.266-1.483.285-6.856.328-21.647-.069-31.154 0-10.589.076-21.492.068-34.122.284-42.808.73-98.285.173-143.9 0-14.236-.054-29.019.23-43.024.284-19.573.075-38.582.228-57.854 0-2.395-.028-2.524-.237-4.451-.284.49.012-.789.45-1.484.284-1.245-.299-5.541-.244-10.384-.568C4.348 3.2-.67 3.234.075 2.458"/>
</svg>
