<?xml version="1.0" encoding="UTF-8"?>
<svg width="9px" height="11px" viewBox="0 0 9 11" version="1.1" xmlns="http://www.w3.org/2000/svg" xmlns:xlink="http://www.w3.org/1999/xlink">
    <!-- Generator: Sketch 58 (84663) - https://sketch.com -->
    <title>edit</title>
    <desc>Created with Sketch.</desc>
    <g id="Symbols" stroke="none" stroke-width="1" fill="none" fill-rule="evenodd">
        <g id="desk/header/logged/delivery" transform="translate(-967.000000, -150.000000)" fill="#D7572B">
            <g id="location-info" transform="translate(0.000000, 125.000000)">
                <g id="edit" transform="translate(935.000000, 25.000000)">
                    <path d="M33.1782139,7.44729796 L36.7194693,2.71505658 L38.7515085,4.26430227 L35.2102532,8.99654364 L33.1782139,7.44729796 Z M32.9760557,9.85214979 L32.9795412,8.53176994 L34.2308312,9.48948545 L32.9760557,9.85214979 Z M37.9498464,1.07074354 C37.9986432,1.01088632 38.0578965,0.993281258 38.0892659,0.989760245 C38.1206353,0.986239232 38.183374,0.986239232 38.2426273,1.0320124 L39.9400598,2.32774516 C39.9993131,2.37351833 40.0167405,2.43337555 40.020226,2.46858567 C40.0237115,2.50027479 40.0237115,2.56365302 39.9784001,2.62351024 L39.3405559,3.47911639 L37.3085167,1.9298707 L37.9498464,1.07074354 Z M35.6947359,9.98594828 L40.7591493,3.21504042 C40.9508512,2.96152748 41.0310174,2.64463632 40.9891915,2.32774516 C40.9438802,2.01085399 40.7835477,1.72917296 40.5291072,1.53903826 L38.8316747,0.243305504 C38.5807196,0.0496497929 38.2670257,-0.0313335045 37.9533319,0.0109186507 C37.639638,0.0566918187 37.360799,0.218658413 37.1725827,0.475692357 L32.1081693,7.24660022 C32.0454305,7.33110453 32.0105756,7.43673492 32.0105756,7.5423653 L32.0001192,10.5070582 C31.9966337,10.6619828 32.0698289,10.8063443 32.191821,10.9014116 C32.2789582,10.9683109 32.3800373,11 32.4846019,11 C32.5299133,11 32.5752246,10.992958 32.6205359,10.9823949 L35.4402954,10.1619989 C35.5413745,10.1338308 35.6319972,10.0704526 35.6947359,9.98594828 L35.6947359,9.98594828 Z"></path>
                </g>
            </g>
        </g>
    </g>
</svg>