<svg xmlns="http://www.w3.org/2000/svg" width="18" height="18" viewBox="0 0 18 18">
    <path fill="#E00202" fill-rule="evenodd" d="M9 0c4.964 0 9 4.036 9 9s-4.036 9-9 9-9-4.036-9-9 4.036-9 9-9zm0 1.952C5.116 1.952 1.952 5.116 1.952 9S5.116 16.048 9 16.048 16.048 12.884 16.048 9 12.884 1.952 9 1.952zm0 9.378a1.194 1.194 0 1 1 0 2.388 1.194 1.194 0 0 1 0-2.388zm0-7.389c.493 0 .904.376.96.854l.006.112V9.36a.97.97 0 0 1-.966.966.972.972 0 0 1-.96-.87l-.006-.115V4.907A.97.97 0 0 1 9 3.941z"/>
</svg>
