<?xml version="1.0" encoding="UTF-8"?>
<svg width="24px" height="24px" viewBox="0 0 24 24" version="1.1" xmlns="http://www.w3.org/2000/svg" xmlns:xlink="http://www.w3.org/1999/xlink">
    <!-- Generator: Sketch 58 (84663) - https://sketch.com -->
    <title>icon/form-error-symbol</title>
    <desc>Created with Sketch.</desc>
    <g id="icon/form-error-symbol" stroke="none" stroke-width="1" fill="none" fill-rule="evenodd">
        <path d="M12,3 C16.9642105,3 21,7.03578947 21,12 C21,16.9642105 16.9642105,21 12,21 C7.03578947,21 3,16.9642105 3,12 C3,7.03578947 7.03578947,3 12,3 Z M12,4.95157895 C8.11578947,4.95157895 4.95157895,8.11578947 4.95157895,12 C4.95157895,15.8842105 8.11578947,19.0484211 12,19.0484211 C15.8842105,19.0484211 19.0484211,15.8842105 19.0484211,12 C19.0484211,8.11578947 15.8842105,4.95157895 12,4.95157895 Z M12,14.3304505 C12.6591789,14.3304505 13.1936842,14.8649558 13.1936842,15.5241347 C13.1936842,16.1833137 12.6591789,16.7180084 12,16.7180084 C11.3408211,16.7180084 10.8063158,16.1833137 10.8063158,15.5241347 C10.8063158,14.8649558 11.3408211,14.3304505 12,14.3304505 Z M12,6.94101474 C12.4926316,6.94101474 12.9035768,7.31677199 12.9597698,7.79522066 L12.9663158,7.90733053 L12.9663158,12.3599621 C12.9663158,12.8904884 12.5305263,13.3262779 12,13.3262779 C11.5073684,13.3262779 11.0964232,12.9505206 11.0402302,12.4569016 L11.0336842,12.3410147 L11.0336842,7.90733053 C11.0336842,7.37680421 11.4694737,6.94101474 12,6.94101474 Z" id="!" fill="#E00202"></path>
    </g>
</svg>