<svg xmlns="http://www.w3.org/2000/svg" width="26" height="24" viewBox="0 0 26 24">
    <path fill="#1C2529" fill-rule="nonzero" d="M7.57.5c.473 0 .857.357.857.798v6.381c0 .44-.384.798-.857.798H4.428v14.225h3.427v-1.861H6.57c-.237 0-.429-.179-.429-.399v-3.16c0-.914.435-1.732 1.12-2.293-.876-.014-1.563-.761-1.374-1.61.139-.623.768-1.047 1.452-1.047h1.373l.434-2.02c.154-.717.923-1.304 1.709-1.304h9.712c.785 0 1.574.583 1.752 1.295l.51 2.03h1.309c.78 0 1.422.584 1.427 1.311.006.734-.336 1.333-1.119 1.345.685.56 1.12 1.38 1.12 2.293v3.16c0 .22-.192.399-.429.399h-1.285v1.861h1.577c.236 0 .428.179.428.4 0 .22-.192.398-.428.398H.595c-.236 0-.428-.178-.428-.399 0-.22.192-.399.428-.399h2.976V8.477H1c-.474 0-.857-.357-.857-.798V1.298C.143.858.526.5 1 .5zm15.424 20.341h-2v1.861h2v-1.861zm-12.282 0h-2v1.861h2v-1.861zm9.426 0h-8.57v1.861h8.57v-1.861zm2.142-5.82H9.426c-1.341 0-2.428 1.013-2.428 2.261v2.761h17.71v-2.761c0-1.248-1.087-2.26-2.428-2.26zm-12.226.479c1.033 0 1.875.785 1.875 1.75S11.087 19 10.054 19c-1.034 0-1.875-.785-1.875-1.75s.84-1.75 1.875-1.75zm12.321 0c1.034 0 1.875.785 1.875 1.75S23.409 19 22.375 19s-1.875-.785-1.875-1.75.841-1.75 1.875-1.75zm-12.321.808c-.557 0-1.01.422-1.01.942s.453.942 1.01.942c.556 0 1.01-.422 1.01-.942s-.454-.942-1.01-.942zm12.321 0c-.557 0-1.01.422-1.01.942s.453.942 1.01.942c.557 0 1.01-.422 1.01-.942s-.453-.942-1.01-.942zm-1.809-6.502h-9.712c-.399 0-.79.298-.868.663l-.81 3.767c.083-.006.166-.012.25-.012H22.28c.049 0 .096.005.144.007l-.94-3.746c-.093-.373-.506-.679-.918-.679zM8.54 13.13H7.307c-.249 0-.488.136-.565.357-.126.367.166.707.541.707h1.029l.228-1.064zm15.583 0h-1.095l.267 1.064h.84c.225 0 .487-.158.549-.36.113-.37-.183-.704-.561-.704zM6.565 1.298H2.102C1.493 1.298 1 1.758 1 2.324v4.291c0 .588.511 1.064 1.143 1.064H6.17c.773 0 1.4-.583 1.4-1.303V2.232c0-.516-.45-.934-1.005-.934zM4.43 2.5c.886 0 1.607.68 1.607 1.515 0 .836-.721 1.516-1.607 1.516h-.73v1.056c0 .228-.197.413-.44.413-.241 0-.438-.185-.438-.413V2.913c0-.228.197-.413.439-.413zm0 .827h-.73v1.377h.73c.403 0 .73-.309.73-.689 0-.38-.327-.688-.73-.688z"/>
</svg>
