<svg xmlns="http://www.w3.org/2000/svg" width="30" height="28" viewBox="0 0 30 28">
    <path fill="#1C2529" fill-rule="nonzero" d="M29.464 5v16.818c.196.018.35.164.35.34 0 .188-.175.342-.388.342l.038-.004v.004h-8.99l-.023-.001L.387 22.5c-.186 0-.343-.118-.38-.273L0 22.158c0-.188.174-.341.387-.341l1.887-.001v-1.447H1.158c-.206 0-.373-.156-.373-.35V17.25c0-.8.378-1.518.974-2.01-.762-.012-1.359-.666-1.195-1.41.12-.547.668-.917 1.262-.917H3.02l.378-1.771C3.532 10.514 4.2 10 4.884 10h8.447c.683 0 1.368.51 1.524 1.134l.442 1.779h1.14c.678 0 1.236.512 1.242 1.15.004.642-.293 1.167-.974 1.178l.144.127c.512.484.83 1.148.83 1.882v2.77c0 .193-.168.349-.374.349h-1.117l-.001 1.447 2.852.001a1.596 1.596 0 0 1-.345-.988v-5.946c0-.48.415-.87.926-.87h3.374l-2.054-1.932-.74.696c-.315.357-1.043.397-1.414.03l-1.945-1.443a.904.904 0 0 1-.23-.686.858.858 0 0 1 .331-.597c.39-.309.974-.272 1.323.08l1.232.841.644-.603a1.332 1.332 0 0 1-.465-.34c-.33-.372-.462-.904-.352-1.423.113-.53.492-.958.965-1.09.469-.13.95.018 1.285.396.297.333.433.793.379 1.258.321 0 .644.111.88.332l3.06 2.85c.17.159.267.38.267.606v1.026h.751V6.87H18.89c-.492 0-.86-.385-.877-.914-.017-.527.33-.929.822-.955L29.464 5zM4.76 20.369H3.02v1.447h1.739v-1.447zm8.199 0H5.505l-.001 1.447h7.453v-1.447zm2.484 0h-1.739v1.447h1.739v-1.447zM28.76 5.662h-9.905c-.143.009-.138.272-.138.274.003.076.039.272.173.272h8.727v8.468h-2.16v-1.688c0-.051-.022-.1-.06-.134L22.335 10a.586.586 0 0 0-.644-.087 1.354 1.354 0 0 1-.527.464L19.57 11.87l-1.812-1.249a.266.266 0 0 0-.361-.033.21.21 0 0 0-.083.15.265.265 0 0 0 .05.179l1.929 1.428c.092.1.288.097.387-.014l1.263-1.187 2.828 2.663v.869h-4.15c-.122 0-.221.093-.221.207v5.946c0 .487.368.893.857.988l8.503-.001V5.662zM14.821 15.27H3.64c-1.166 0-2.112.886-2.112 1.98v2.42h15.403v-2.42c0-1.094-.944-1.98-2.111-1.98zM4.018 16.5c.738 0 1.34.673 1.34 1.5s-.602 1.5-1.34 1.5c-.739 0-1.34-.673-1.34-1.5s.601-1.5 1.34-1.5zm10.714 0c.739 0 1.34.673 1.34 1.5s-.601 1.5-1.34 1.5c-.738 0-1.34-.673-1.34-1.5s.602-1.5 1.34-1.5zm-10.714.692c-.398 0-.722.363-.722.808 0 .445.324.808.722.808.398 0 .721-.363.721-.808 0-.445-.323-.808-.721-.808zm10.714 0c-.398 0-.721.363-.721.808 0 .445.323.808.721.808.398 0 .722-.363.722-.808 0-.445-.324-.808-.722-.808zM13.455 10.7H5.008c-.347 0-.686.261-.754.58l-.705 3.302c.073-.005.144-.01.217-.01h11.18c.042 0 .083.004.125.005l-.817-3.282c-.081-.327-.44-.595-.799-.595zm-10.46 2.913H1.925c-.217 0-.425.119-.492.313-.11.32.145.619.47.619h.895l.199-.932zm13.554 0h-.953l.232.932h.73c.197 0 .425-.139.48-.316.097-.324-.16-.616-.489-.616zm4.074-5.444a.706.706 0 0 0-.19.026c-.255.071-.467.31-.528.596a.901.901 0 0 0 .195.798c.174.197.413.281.66.232l.306-.288c.07-.065.146-.12.228-.166a.912.912 0 0 0-.143-.953.703.703 0 0 0-.528-.245z"/>
</svg>
