<svg xmlns="http://www.w3.org/2000/svg" width="30" height="28" viewBox="0 0 30 28">
    <path fill="#1C2529" fill-rule="nonzero" d="M24.26 3.5c.519 0 .36.683.36.683V24H5.893V3.777c.006-.05.05-.277.36-.277.218 0 .36.153.36.342v1.025H23.9V3.842c0-.189.16-.342.36-.342zM14.176 19.217h-1.08v4.1h4.321v-4.1h-1.08v1.025a.35.35 0 0 1-.36.341h-1.44a.351.351 0 0 1-.361-.341v-1.025zm-5.042 0h-1.08v4.1h4.321v-4.1h-1.08v1.025a.351.351 0 0 1-.36.341h-1.44a.351.351 0 0 1-.36-.341v-1.025zM23.9 17.85H6.613v5.467h.72v-4.442c0-.189.162-.342.36-.342h10.084c.2 0 .36.153.36.342v4.442H23.9V17.85zM17.143 22v.5h-1.607V22h1.607zm-5.357 0v.5h-1.607V22h1.607zm3.83-2.783h-.72v.683h.72v-.683zm-5.041 0h-.72v.683h.72v-.683zm8.643-6.15h-1.08v4.1h4.321v-4.1h-1.08v1.025a.351.351 0 0 1-.36.341h-1.441c-.2 0-.36-.153-.36-.341v-1.025zm-10.084 0h-1.08v4.1h4.321v-4.1h-1.08v1.025a.351.351 0 0 1-.36.341h-1.44a.351.351 0 0 1-.36-.341v-1.025zM23.9 11.7H6.613v5.467h.72v-4.442c0-.189.162-.342.36-.342h5.042c.2 0 .36.153.36.342v4.442h4.322v-4.442c0-.189.161-.342.36-.342h5.042c.2 0 .36.153.36.342v4.442h.72V11.7zM21.964 16v.5h-1.607V16h1.607zm-10.178 0v.5h-1.607V16h1.607zm-1.211-2.933h-.72v.683h.72v-.683zm10.083 0h-.72v.683h.72v-.683zM23.9 5.55H6.613v5.467h.72V6.575c0-.189.162-.342.36-.342H22.82c.2 0 .36.153.36.342v4.442h.72V5.55zm-4.682 1.367h-1.08v4.1h4.321v-4.1h-1.08v1.025a.351.351 0 0 1-.36.341h-1.441c-.2 0-.36-.153-.36-.341V6.917zm-5.042 0h-1.08v4.1h4.321v-4.1h-1.08v1.025a.351.351 0 0 1-.36.341h-1.44a.351.351 0 0 1-.361-.341V6.917zm-5.042 0h-1.08v4.1h4.321v-4.1h-1.08v1.025a.351.351 0 0 1-.36.341h-1.44a.351.351 0 0 1-.36-.341V6.917zM11.786 9.5v.5h-1.607v-.5h1.607zm5.357 0v.5h-1.607v-.5h1.607zm4.821 0v.5h-1.607v-.5h1.607zm-1.306-2.583h-.72V7.6h.72v-.683zm-5.041 0h-.72V7.6h.72v-.683zm-5.042 0h-.72V7.6h.72v-.683z"/>
</svg>
