<svg xmlns="http://www.w3.org/2000/svg" width="211" height="150" viewBox="0 0 211 150">
    <path fill="#89B2C4" fill-opacity=".5" fill-rule="evenodd" d="M210.546 90.233v56.561h-.006v.78c0 1.062-.855 1.926-1.9 1.926h-4.071a1.918 1.918 0 0 1-1.906-1.925v-.78h-.02l-.012-137.003-19.56 4.368a4.175 4.175 0 0 1-3.609 0l-23.53-6.274-23.517 6.274c-1.095.537-2.507.55-3.596.012l-23.536-6.286-23.524 6.274a4.18 4.18 0 0 1-3.622 0l-23.51-6.274-23.524 6.274a4.18 4.18 0 0 1-3.622 0L7.928 9.792l-.064 129.236.007 8.547c0 1.061-.849 1.925-1.894 1.925H1.9c-1.052 0-1.9-.864-1.9-1.925v-8.547h.013V91.621c0-.352-.013-11.156 0-12.206V3.71c0-1.273.684-2.444 1.83-3.135C3.02-.123 4.533-.187 5.78.401l23.517 6.287L52.815.408a4.225 4.225 0 0 1 3.622 0l23.517 6.28 23.518-6.28a4.225 4.225 0 0 1 3.621 0l23.511 6.28 23.524-6.28c1.152-.544 2.5-.544 3.622 0l23.51 6.28 23.524-6.28c1.222-.576 2.767-.525 3.932.173 1.146.684 1.83 1.855 1.83 3.128v75.687c.038 3.384.063 8.483.05 10.811l-.05.026z"/>
</svg>
